<svg width="48" height="49" fill="none" xmlns="http://www.w3.org/2000/svg"><g clip-path="url(#clip0_2006_257)" fill-rule="evenodd" clip-rule="evenodd" fill="#000"><path d="M1.108.097c.116 16.258.128 32.239.03 48.73-.315.038-.747.113-1.033 0C.065 37.326-.04 26.183.017 14.902c.014-2.947-.042-5.97.03-8.936.023-.988-.047-1.963 0-2.949.023-.513.023-1.064 0-1.578C.024.978-.084.477.134.038c.278-.034.782-.087.974.059zM2.937.038c.308.027.73-.062.944.06.116 16.17.064 32.754.03 48.7-.204.139-.787.121-1.032.03-.22-7.838-.005-16.278-.09-24.276-.062-5.945.002-12.055 0-18.318V1.617c0-.485-.04-1.23.06-1.49a.15.15 0 01.088-.089zm3.688.059c.158 2.001.089 4.025.089 6.047-.002 14.065.05 28.641-.06 42.684-.245.083-.861.121-1.062-.03-.08-15.349-.061-31.17-.058-47.211 0-.5-.058-1.332.088-1.49a.21.21 0 01.089-.06c.299.027.709-.06.914.06zm2.774 0c.152 7.26-.018 15.03.118 22.251.547.21 1.164.119 1.74.119 9.049-.001 18.222.068 27.292 0 .14-3.585.06-7.36.06-11.14-.001-3.776-.035-7.494.059-11.14.23-.113.755-.063 1.031-.03.159.454.09.95.09 1.43-.001 7.379.033 15.136-.03 22.042-.623.159-1.287.09-1.918.09-4.53 0-9.254-.03-13.837-.03-4.658 0-9.201-.06-13.808-.06-.608 0-1.238.06-1.83-.09-.107-7.096-.06-14.697-.059-22.042 0-.458-.057-1.256.088-1.4a.21.21 0 01.088-.059c.305.022.703-.054.916.06z"/><path d="M12.173.127c.165 6.378-.042 13.277.118 19.451.436.14.932.12 1.386.12 7.38 0 14.903.08 22.129-.03.176-6.352-.059-13.128.117-19.51.237-.092.838-.11 1.034.03a728.76 728.76 0 010 20.7c-4.34.013-8.727.074-12.953.06-3.208-.01-6.47-.042-9.619-.06-1.086-.005-2.17.075-3.245-.089-.109-6.31-.06-13.201-.06-19.57 0-.379-.108-.845.148-1.161.266-.032.765-.09.945.06z"/><path d="M13.972.068c.317.027.75-.063.974.06.175 5.293-.06 11.146.117 16.62.717.163 1.47.09 2.213.09 5.194 0 10.544.074 15.726-.03.16-.648.089-1.348.089-2.025 0-4.802-.05-9.894.06-14.625.23-.096.8-.096 1.032 0 .102 5.97.095 12.1.03 17.842-.788.156-1.627.099-2.45.06-2.56-.122-5.21 0-7.759 0-3.425 0-6.824.03-10.12-.09-.108-5.35-.059-11.152-.06-16.74 0-.384-.042-.89.06-1.072a.149.149 0 01.088-.09z"/><path d="M17.69.127c.175 4.417-.058 9.382.117 13.702.384.19.916.1 1.358.09 3.508-.08 7.446.224 11.065-.03.159-.528.088-1.104.087-1.669 0-3.948-.047-8.203.06-12.093.263-.101.834-.093 1.062.03a378.72 378.72 0 010 14.922c-4.945.127-10.001.06-14.782 0-.107-4.141-.06-8.751-.06-13.136 0-.513-.062-1.61.09-1.817a.22.22 0 01.088-.058c.299.026.71-.06.915.06z"/><path d="M19.52.068c.286.027.7-.073.855.089.176 3.476-.058 7.366.118 10.842 1.022.16 2.243.12 3.451.12 1.193 0 2.392.023 3.512-.03.196-.377.117-.849.117-1.28 0-3.149-.047-6.606.06-9.682.255-.073.825-.123 1.033.03.098 3.87.098 8.163 0 12.063-.71.159-1.487.09-2.272.09-2.311 0-4.784.032-6.964-.06-.137-.951-.088-1.948-.088-2.979 0-2.451.03-4.959.03-7.684 0-.478-.073-1.247.059-1.46a.206.206 0 01.088-.06zm22.983.149c.135 8.19-.064 16.273.06 24.335.03 2.022-.064 4.05 0 6.076.063 2.05.028 4.122 0 6.166-.058 4.066.058 8.095-.06 12.123-.229.135-.759.083-1.032 0-.1-6.13-.09-12.254-.09-18.259.001-4.17.03-8.236.03-12.301.002-5.628.035-11.278-.03-16.83-.005-.447-.047-.944.119-1.37.29-.037.797-.083 1.003.06zm2.655-.03c.121 16.54.081 32.415.03 48.7-.195.14-.797.122-1.033.03-.25-7.896.022-16.16-.059-24.306-.073-7.48-.03-15.244-.03-22.965 0-.463-.058-1.334.09-1.46a.214.214 0 01.088-.06c.299.027.709-.059.914.06zm2.774-.001c.085 15.899.096 32.47 0 48.731-.266.078-.771.099-1.033 0-.077-1.971-.122-3.978-.06-5.987.062-1.961-.067-3.938-.03-5.928.078-4.023.032-8.196.03-12.272 0-5.99-.03-12.061-.03-18.467.001-1.518.028-3.069 0-4.588-.008-.479-.048-1.347.09-1.49a.209.209 0 01.088-.059c.309.028.73-.06.945.06zM39.73 25.565c.177.953.059 1.924.059 2.89-.001 6.72.044 13.515-.03 20.433-.194.145-.826.122-1.062.03-.178-7.327 0-14.711-.118-22.131-.565-.141-1.154-.103-1.74-.12-4.22-.118-8.527 0-12.746 0-4.873 0-9.754-.11-14.517 0-.184.882-.117 1.82-.117 2.74 0 6.685.06 13 0 19.392-.205.148-.842.118-1.092.03-.128-7.092-.023-14.735-.059-22.012-.002-.403-.014-1.187.118-1.311a.206.206 0 01.089-.06c10.321.082 20.896-.017 31.214.119z"/><path d="M36.957 28.335c.124 6.778.062 13.598.029 20.552-.222.143-.836.126-1.062 0-.173-6.218.054-13.062-.118-19.39-3.824-.162-7.852-.09-11.802-.09-3.971 0-7.903-.099-11.684.03-.155.745-.063 1.538-.06 2.323.032 5.799-.025 11.487-.059 17.067-.224.14-.802.121-1.032 0-.08-2.513-.088-5.25-.088-7.744 0-4.053-.108-8.124 0-12.391.01-.384-.003-.454.294-.506.47-.083 1.081-.009 1.623 0 3.63.055 7.508.06 11.212.06h11.24c.501 0 1.019-.071 1.506.089z"/><path d="M34.183 31.105c.146 1.43.088 2.941.088 4.439 0 4.536.014 8.931-.06 13.344-.23.095-.801.095-1.032 0-.177-.615-.056-1.282-.06-1.936-.024-4.717.007-9.936-.089-14.625-.707-.157-1.44-.083-2.182-.12-.727-.034-1.5.031-2.243.031-4.536 0-9.16-.068-13.513.03-.16.65-.088 1.343-.088 2.024-.001 4.88.044 9.77-.06 14.566-.23.096-.802.096-1.033 0-.15-5.689-.116-11.826-.029-17.752 3.47-.142 7.312-.03 11.005-.03 3.156-.001 6.288-.086 9.296.03z"/><path d="M31.438 33.994a373.44 373.44 0 010 14.893c-.257.095-.788.048-1.061-.03-.089-3.895-.058-7.971-.06-12.092 0-.55.064-1.102-.059-1.609-.882-.146-1.89-.06-2.95-.06-3.088 0-6.45-.072-9.442.03-.163.523-.13 1.106-.118 1.668.081 3.87-.008 8.2-.03 12.064-.244.09-.819.099-1.061 0-.106-4.37-.06-9.449-.06-14.148 0-.255-.095-.62.148-.805 4.304-.04 8.526 0 12.952 0 .574 0 1.18-.072 1.741.09z"/><path d="M28.695 36.794c.042 3.932.06 8.323 0 12.064-.202.147-.786.111-1.033.03-.242-3.416.046-7.408-.148-10.902-2.206-.097-4.824-.093-6.992-.03-.16.845-.088 1.76-.088 2.681 0 2.692.025 5.648-.03 8.221-.228.092-.806.1-1.032 0-.154-.837-.088-1.98-.089-2.919-.006-2.477 0-5.229 0-7.834 0-.58-.163-1.4.325-1.4 3.069.001 5.977.028 9.087.09z"/></g><defs><clipPath id="clip0_2006_257"><path fill="#fff" d="M0 0h48v49H0z"/></clipPath></defs></svg>